<svg width="479" height="479" viewBox="0 0 479 479" fill="none" xmlns="http://www.w3.org/2000/svg">
<g clip-path="url(#clip0)">
<path d="M475.146 244.099L365.242 180.972V168.539H373.093V144.987H377.998C377.998 137.136 370.532 128.304 361.315 128.304C352.101 128.304 344.631 137.136 344.631 144.987H349.54V168.539H357.391V176.466L310.288 149.414V137.137H318.138V113.585H323.043C323.043 105.734 315.577 96.902 306.36 96.902C297.147 96.902 289.681 105.734 289.681 113.585H294.586V137.137H302.436V144.904L277.162 130.387C277.163 18.031 239.636 0 239.636 0C239.636 0 202.104 18.031 202.104 130.385L176.831 144.902V137.135H184.682V113.583H189.589C189.589 105.732 182.121 96.9 172.906 96.9C163.691 96.9 156.225 105.732 156.225 113.583H161.132V137.135H168.98V149.412L121.879 176.464V168.537H129.73V144.985H134.635C134.635 137.134 127.169 128.302 117.954 128.302C108.739 128.302 101.271 137.134 101.271 144.985H106.178V168.537H114.029V180.97L4.123 244.099V254.89C4.123 254.89 1.847 267.65 1.847 276.479L12.461 272.555L21.786 276.479L23.749 266.668L74.776 254.261V276.226C74.776 277.453 75.766 278.442 76.98 278.442H80.422C81.638 278.442 82.626 277.453 82.626 276.234V252.362L121.878 242.824V260.533C121.878 261.752 122.868 262.741 124.082 262.741H127.524C128.738 262.741 129.728 261.752 129.728 260.533V240.917L168.978 231.379V244.84C168.978 246.05 169.968 247.04 171.182 247.04H174.624C175.84 247.04 176.828 246.05 176.828 244.831V229.461L199.398 223.977C199.398 223.977 200.622 240.415 208.725 248.515C208.725 248.515 209.706 281.876 209.706 324.564C209.706 367.251 226.387 410.427 226.387 410.427L152.3 456.548L151.813 478.136L235.097 457.53C235.097 457.53 231.785 471.757 239.636 476.173C247.485 471.765 243.036 457.53 243.036 457.53L325.184 478.136L324.699 456.548L250.622 410.427C250.622 410.427 267.301 367.25 267.301 324.564C267.301 281.876 268.299 248.515 268.299 248.515C276.394 240.415 277.668 223.977 277.668 223.977L302.438 229.998V244.831C302.438 246.05 303.428 247.04 304.638 247.04H308.089C309.299 247.04 310.289 246.05 310.289 244.831V231.907L349.541 241.445V260.532C349.541 261.751 350.527 262.74 351.741 262.74H355.191C356.402 262.74 357.391 261.751 357.391 260.532V243.352L396.64 252.89V276.241C396.64 277.452 397.63 278.441 398.84 278.441H402.29C403.505 278.441 404.49 277.452 404.49 276.233V254.782L453.381 266.668L455.488 276.479L465.094 272.555L476.286 276.479C476.286 267.65 475.144 254.89 475.144 254.89V244.099H475.146Z" fill="white"/>
</g>
<defs>
<clipPath id="clip0">
<rect width="478.136" height="478.136" fill="white"/>
</clipPath>
</defs>
</svg>
